# xmcd
#
# Track frame offsets:
#	150
#	21008
#	31655
#	55229
#	70913
#
# Disc length: 1226 seconds
#
# Revision: 0
# Processed by: cddbd v1.5.2PL0 Copyright (c) Steve Scherf et al.
# Submitted via: dBpowerAMP V4.0
#
DISCID=3604c805
DTITLE=Kiara Rodrigues - Kiara Rodrigues
DYEAR=2008
DGENRE=Country
TTITLE0=The Old Rugged Cross
TTITLE1=My Bushy Mate
TTITLE2=One Day At A Time
TTITLE3=My School Days
TTITLE4=Crazy
EXTD=
EXTT0=
EXTT1=
EXTT2=
EXTT3=
EXTT4=
PLAYORDER=
